<svg width="20" height="20" viewBox="0 0 20 20" fill="none" xmlns="http://www.w3.org/2000/svg">
<path d="M11.91 8.09001C12.4165 8.59657 12.7011 9.28362 12.7011 10C12.7011 10.7164 12.4165 11.4034 11.91 11.91C11.4034 12.4166 10.7164 12.7012 9.99998 12.7012C9.28359 12.7012 8.59654 12.4166 8.08998 11.91C7.58341 11.4034 7.29883 10.7164 7.29883 10C7.29883 9.64529 7.3687 9.29404 7.50444 8.96632C7.64019 8.6386 7.83915 8.34083 8.08998 8.09001C8.3408 7.83918 8.63857 7.64022 8.96629 7.50447C9.29401 7.36873 9.64526 7.29886 9.99998 7.29886C10.7164 7.29886 11.4034 7.58344 11.91 8.09001" stroke="white" stroke-width="1.5" stroke-linecap="round" stroke-linejoin="round"/>
<path d="M3.24993 10C3.24993 10.297 3.27693 10.594 3.31293 10.882L1.72493 12.124C1.55461 12.2574 1.43817 12.4478 1.39702 12.6602C1.35586 12.8725 1.39276 13.0926 1.50093 13.28L2.91293 15.723C3.02107 15.9101 3.19304 16.0519 3.39729 16.1224C3.60155 16.193 3.82439 16.1875 4.02493 16.107L5.44693 15.536C5.58536 15.4824 5.73477 15.4634 5.8822 15.4807C6.02963 15.4979 6.17062 15.5509 6.29293 15.635C6.51293 15.781 6.74093 15.915 6.97693 16.035C7.24693 16.172 7.44293 16.417 7.48593 16.717L7.70293 18.23C7.76593 18.672 8.14493 19 8.59093 19H11.4079C11.6238 19 11.8325 18.9221 11.9956 18.7807C12.1587 18.6393 12.2654 18.4437 12.2959 18.23L12.5129 16.718C12.5366 16.5712 12.5955 16.4323 12.6847 16.3134C12.7739 16.1944 12.8907 16.0989 13.0249 16.035C13.2599 15.917 13.4869 15.784 13.7059 15.639C13.8286 15.554 13.9701 15.5002 14.1183 15.4825C14.2664 15.4647 14.4167 15.4834 14.5559 15.537L15.9749 16.107C16.1755 16.1873 16.3983 16.1927 16.6025 16.1221C16.8067 16.0516 16.9786 15.9099 17.0869 15.723L18.4989 13.28C18.6071 13.0926 18.644 12.8725 18.6028 12.6602C18.5617 12.4478 18.4453 12.2574 18.2749 12.124L16.6869 10.882C16.7229 10.594 16.7499 10.297 16.7499 10C16.7499 9.703 16.7229 9.406 16.6869 9.118L18.2749 7.876C18.4453 7.74261 18.5617 7.55222 18.6028 7.33984C18.644 7.12745 18.6071 6.90735 18.4989 6.72L17.0869 4.277C16.9788 4.08991 16.8068 3.94809 16.6026 3.87755C16.3983 3.80702 16.1755 3.8125 15.9749 3.893L14.5559 4.463C14.4166 4.51634 14.2664 4.53492 14.1183 4.51715C13.9702 4.49938 13.8287 4.44578 13.7059 4.361C13.487 4.21555 13.2596 4.08332 13.0249 3.965C12.8907 3.90113 12.7739 3.8056 12.6847 3.68663C12.5955 3.56766 12.5366 3.4288 12.5129 3.282L12.2969 1.77C12.2664 1.55627 12.1597 1.36074 11.9966 1.2193C11.8335 1.07785 11.6248 0.999991 11.4089 1H8.59193C8.37603 0.999991 8.16737 1.07785 8.00425 1.2193C7.84113 1.36074 7.7345 1.55627 7.70393 1.77L7.48593 3.284C7.46228 3.43026 7.40365 3.56865 7.31503 3.68739C7.22641 3.80613 7.11042 3.90171 6.97693 3.966C6.74093 4.086 6.51293 4.221 6.29293 4.366C6.17024 4.44971 6.02906 4.50236 5.88152 4.51943C5.73397 4.5365 5.58449 4.51748 5.44593 4.464L4.02493 3.893C3.82439 3.8125 3.60155 3.80702 3.39729 3.87755C3.19304 3.94809 3.02107 4.08991 2.91293 4.277L1.50093 6.72C1.39276 6.90735 1.35586 7.12745 1.39702 7.33984C1.43817 7.55222 1.55461 7.74261 1.72493 7.876L3.31293 9.118C3.27372 9.41042 3.25268 9.70498 3.24993 10V10Z" stroke="white" stroke-width="1.5" stroke-linecap="round" stroke-linejoin="round"/>
</svg>
